<mxfile host="app.diagrams.net" agent="Mozilla/5.0 (Windows NT 10.0; Win64; x64) AppleWebKit/537.36 (KHTML, like Gecko) Chrome/122.0.0.0 Safari/537.36" version="26.1.0">
  <diagram name="Page-1" id="3O9yV9mM7rHO6GYgg3Hz">
    <mxGraphModel dx="1059" dy="549" grid="1" gridSize="10" guides="1" tooltips="1" connect="1" arrows="1" fold="1" page="1" pageScale="1" pageWidth="1200" pageHeight="1920" math="0" shadow="0">
      <root>
        <mxCell id="0" />
        <mxCell id="1" parent="0" />
        <mxCell id="F2qCMpToe5Y3enXlYnyH-3" value="" style="endArrow=none;html=1;rounded=0;startFill=0;dashed=1;entryX=0.5;entryY=0;entryDx=0;entryDy=0;entryPerimeter=0;" edge="1" parent="1" target="F2qCMpToe5Y3enXlYnyH-10">
          <mxGeometry width="50" height="50" relative="1" as="geometry">
            <mxPoint x="65" y="100" as="sourcePoint" />
            <mxPoint x="65" y="360" as="targetPoint" />
          </mxGeometry>
        </mxCell>
        <mxCell id="F2qCMpToe5Y3enXlYnyH-4" value="Interface Bancaire" style="rounded=0;whiteSpace=wrap;html=1;" vertex="1" parent="1">
          <mxGeometry x="230" y="40" width="120" height="30" as="geometry" />
        </mxCell>
        <mxCell id="F2qCMpToe5Y3enXlYnyH-5" value="Interface Banacaire" style="rounded=0;whiteSpace=wrap;html=1;" vertex="1" parent="1">
          <mxGeometry x="230" y="550" width="120" height="30" as="geometry" />
        </mxCell>
        <mxCell id="F2qCMpToe5Y3enXlYnyH-6" value="" style="endArrow=none;html=1;rounded=0;exitX=0.5;exitY=1;exitDx=0;exitDy=0;entryX=0.5;entryY=0;entryDx=0;entryDy=0;startFill=0;dashed=1;" edge="1" parent="1" source="F2qCMpToe5Y3enXlYnyH-4" target="F2qCMpToe5Y3enXlYnyH-5">
          <mxGeometry width="50" height="50" relative="1" as="geometry">
            <mxPoint x="110" y="80" as="sourcePoint" />
            <mxPoint x="110" y="340" as="targetPoint" />
          </mxGeometry>
        </mxCell>
        <mxCell id="F2qCMpToe5Y3enXlYnyH-7" value="" style="endArrow=classic;html=1;rounded=0;" edge="1" parent="1">
          <mxGeometry width="50" height="50" relative="1" as="geometry">
            <mxPoint x="70" y="150" as="sourcePoint" />
            <mxPoint x="290" y="150" as="targetPoint" />
          </mxGeometry>
        </mxCell>
        <mxCell id="F2qCMpToe5Y3enXlYnyH-8" value="Se connecter" style="text;html=1;align=center;verticalAlign=middle;whiteSpace=wrap;rounded=0;" vertex="1" parent="1">
          <mxGeometry x="70" y="120" width="90" height="30" as="geometry" />
        </mxCell>
        <mxCell id="F2qCMpToe5Y3enXlYnyH-9" value="Client" style="shape=umlActor;verticalLabelPosition=bottom;verticalAlign=top;html=1;outlineConnect=0;" vertex="1" parent="1">
          <mxGeometry x="50" y="10" width="30" height="60" as="geometry" />
        </mxCell>
        <mxCell id="F2qCMpToe5Y3enXlYnyH-10" value="Client" style="shape=umlActor;verticalLabelPosition=bottom;verticalAlign=top;html=1;outlineConnect=0;" vertex="1" parent="1">
          <mxGeometry x="50" y="550" width="30" height="60" as="geometry" />
        </mxCell>
        <mxCell id="F2qCMpToe5Y3enXlYnyH-11" value="Système Bancaire" style="rounded=0;whiteSpace=wrap;html=1;" vertex="1" parent="1">
          <mxGeometry x="520" y="40" width="120" height="30" as="geometry" />
        </mxCell>
        <mxCell id="F2qCMpToe5Y3enXlYnyH-12" value="Système Bancaire" style="rounded=0;whiteSpace=wrap;html=1;" vertex="1" parent="1">
          <mxGeometry x="520" y="550" width="120" height="30" as="geometry" />
        </mxCell>
        <mxCell id="F2qCMpToe5Y3enXlYnyH-13" value="Compte Bancaire" style="rounded=0;whiteSpace=wrap;html=1;" vertex="1" parent="1">
          <mxGeometry x="810" y="40" width="120" height="30" as="geometry" />
        </mxCell>
        <mxCell id="F2qCMpToe5Y3enXlYnyH-14" value="Compte Bancaire" style="rounded=0;whiteSpace=wrap;html=1;" vertex="1" parent="1">
          <mxGeometry x="810" y="550" width="120" height="30" as="geometry" />
        </mxCell>
        <mxCell id="F2qCMpToe5Y3enXlYnyH-15" value="" style="endArrow=none;html=1;rounded=0;exitX=0.5;exitY=0;exitDx=0;exitDy=0;entryX=0.5;entryY=1;entryDx=0;entryDy=0;startFill=0;dashed=1;" edge="1" parent="1" source="F2qCMpToe5Y3enXlYnyH-12" target="F2qCMpToe5Y3enXlYnyH-11">
          <mxGeometry width="50" height="50" relative="1" as="geometry">
            <mxPoint x="580" y="290" as="sourcePoint" />
            <mxPoint x="630" y="240" as="targetPoint" />
          </mxGeometry>
        </mxCell>
        <mxCell id="F2qCMpToe5Y3enXlYnyH-16" value="" style="endArrow=none;html=1;rounded=0;exitX=0.5;exitY=0;exitDx=0;exitDy=0;entryX=0.5;entryY=1;entryDx=0;entryDy=0;startFill=0;dashed=1;" edge="1" parent="1" source="F2qCMpToe5Y3enXlYnyH-14" target="F2qCMpToe5Y3enXlYnyH-13">
          <mxGeometry width="50" height="50" relative="1" as="geometry">
            <mxPoint x="590" y="385" as="sourcePoint" />
            <mxPoint x="590" y="80" as="targetPoint" />
          </mxGeometry>
        </mxCell>
        <mxCell id="F2qCMpToe5Y3enXlYnyH-17" value="" style="endArrow=classic;html=1;rounded=0;" edge="1" parent="1">
          <mxGeometry width="50" height="50" relative="1" as="geometry">
            <mxPoint x="290" y="180" as="sourcePoint" />
            <mxPoint x="580" y="180" as="targetPoint" />
          </mxGeometry>
        </mxCell>
        <mxCell id="F2qCMpToe5Y3enXlYnyH-18" value="Vérifier les informations d&#39;authentification" style="text;html=1;align=center;verticalAlign=middle;whiteSpace=wrap;rounded=0;" vertex="1" parent="1">
          <mxGeometry x="290" y="150" width="250" height="30" as="geometry" />
        </mxCell>
        <mxCell id="F2qCMpToe5Y3enXlYnyH-19" value="" style="endArrow=classic;html=1;rounded=0;entryX=0;entryY=1;entryDx=0;entryDy=0;" edge="1" parent="1" target="F2qCMpToe5Y3enXlYnyH-20">
          <mxGeometry width="50" height="50" relative="1" as="geometry">
            <mxPoint x="580" y="220" as="sourcePoint" />
            <mxPoint x="60" y="220" as="targetPoint" />
          </mxGeometry>
        </mxCell>
        <mxCell id="F2qCMpToe5Y3enXlYnyH-20" value="Confirmation de connexion" style="text;html=1;align=center;verticalAlign=middle;whiteSpace=wrap;rounded=0;" vertex="1" parent="1">
          <mxGeometry x="70" y="190" width="160" height="30" as="geometry" />
        </mxCell>
        <mxCell id="F2qCMpToe5Y3enXlYnyH-21" value="" style="endArrow=classic;html=1;rounded=0;" edge="1" parent="1">
          <mxGeometry width="50" height="50" relative="1" as="geometry">
            <mxPoint x="70" y="260" as="sourcePoint" />
            <mxPoint x="290" y="260" as="targetPoint" />
          </mxGeometry>
        </mxCell>
        <mxCell id="F2qCMpToe5Y3enXlYnyH-22" value="Effectuer une transaction (Depot/Retrait)" style="text;html=1;align=center;verticalAlign=middle;whiteSpace=wrap;rounded=0;" vertex="1" parent="1">
          <mxGeometry x="60" y="230" width="230" height="30" as="geometry" />
        </mxCell>
        <mxCell id="F2qCMpToe5Y3enXlYnyH-23" value="" style="endArrow=classic;html=1;rounded=0;" edge="1" parent="1">
          <mxGeometry width="50" height="50" relative="1" as="geometry">
            <mxPoint x="290" y="290" as="sourcePoint" />
            <mxPoint x="580" y="290" as="targetPoint" />
          </mxGeometry>
        </mxCell>
        <mxCell id="F2qCMpToe5Y3enXlYnyH-24" value="Valider la transaction" style="text;html=1;align=center;verticalAlign=middle;whiteSpace=wrap;rounded=0;" vertex="1" parent="1">
          <mxGeometry x="280" y="260" width="160" height="30" as="geometry" />
        </mxCell>
        <mxCell id="F2qCMpToe5Y3enXlYnyH-25" value="" style="endArrow=classic;html=1;rounded=0;" edge="1" parent="1">
          <mxGeometry width="50" height="50" relative="1" as="geometry">
            <mxPoint x="580" y="320" as="sourcePoint" />
            <mxPoint x="870" y="320" as="targetPoint" />
          </mxGeometry>
        </mxCell>
        <mxCell id="F2qCMpToe5Y3enXlYnyH-26" value="" style="endArrow=classic;html=1;rounded=0;" edge="1" parent="1">
          <mxGeometry width="50" height="50" relative="1" as="geometry">
            <mxPoint x="870" y="360" as="sourcePoint" />
            <mxPoint x="580" y="360" as="targetPoint" />
          </mxGeometry>
        </mxCell>
        <mxCell id="F2qCMpToe5Y3enXlYnyH-27" value="Mettre à jour le solde" style="text;html=1;align=center;verticalAlign=middle;whiteSpace=wrap;rounded=0;" vertex="1" parent="1">
          <mxGeometry x="570" y="290" width="160" height="30" as="geometry" />
        </mxCell>
        <mxCell id="F2qCMpToe5Y3enXlYnyH-28" value="Confirmer la mise à jour du sole" style="text;html=1;align=center;verticalAlign=middle;whiteSpace=wrap;rounded=0;" vertex="1" parent="1">
          <mxGeometry x="650" y="330" width="250" height="30" as="geometry" />
        </mxCell>
        <mxCell id="F2qCMpToe5Y3enXlYnyH-29" value="" style="endArrow=classic;html=1;rounded=0;" edge="1" parent="1">
          <mxGeometry width="50" height="50" relative="1" as="geometry">
            <mxPoint x="580" y="390" as="sourcePoint" />
            <mxPoint x="290" y="390" as="targetPoint" />
          </mxGeometry>
        </mxCell>
        <mxCell id="F2qCMpToe5Y3enXlYnyH-30" value="Envoyer confirmation de transaction" style="text;html=1;align=center;verticalAlign=middle;whiteSpace=wrap;rounded=0;" vertex="1" parent="1">
          <mxGeometry x="350" y="360" width="250" height="30" as="geometry" />
        </mxCell>
        <mxCell id="F2qCMpToe5Y3enXlYnyH-31" value="" style="endArrow=classic;html=1;rounded=0;" edge="1" parent="1">
          <mxGeometry width="50" height="50" relative="1" as="geometry">
            <mxPoint x="290" y="430" as="sourcePoint" />
            <mxPoint x="70" y="430" as="targetPoint" />
          </mxGeometry>
        </mxCell>
        <mxCell id="F2qCMpToe5Y3enXlYnyH-32" value="" style="endArrow=classic;html=1;rounded=0;" edge="1" parent="1">
          <mxGeometry width="50" height="50" relative="1" as="geometry">
            <mxPoint x="580" y="470" as="sourcePoint" />
            <mxPoint x="290" y="470" as="targetPoint" />
          </mxGeometry>
        </mxCell>
        <mxCell id="F2qCMpToe5Y3enXlYnyH-33" value="Afficher Confirmation" style="text;html=1;align=center;verticalAlign=middle;whiteSpace=wrap;rounded=0;" vertex="1" parent="1">
          <mxGeometry x="100" y="400" width="250" height="30" as="geometry" />
        </mxCell>
        <mxCell id="F2qCMpToe5Y3enXlYnyH-34" value="" style="endArrow=classic;html=1;rounded=0;" edge="1" parent="1">
          <mxGeometry width="50" height="50" relative="1" as="geometry">
            <mxPoint x="290" y="520" as="sourcePoint" />
            <mxPoint x="70" y="520" as="targetPoint" />
          </mxGeometry>
        </mxCell>
        <mxCell id="F2qCMpToe5Y3enXlYnyH-35" value="Générer notification" style="text;html=1;align=center;verticalAlign=middle;whiteSpace=wrap;rounded=0;" vertex="1" parent="1">
          <mxGeometry x="450" y="440" width="140" height="30" as="geometry" />
        </mxCell>
        <mxCell id="F2qCMpToe5Y3enXlYnyH-36" value="Afficher notification de transaction" style="text;html=1;align=center;verticalAlign=middle;whiteSpace=wrap;rounded=0;" vertex="1" parent="1">
          <mxGeometry x="70" y="490" width="250" height="30" as="geometry" />
        </mxCell>
      </root>
    </mxGraphModel>
  </diagram>
</mxfile>
